<?xml version="1.0" encoding="UTF-8"?>
  <svg xmlns="http://www.w3.org/2000/svg" viewBox="0 0 900 280" width="1800" height="560">
    <defs>
      <style>
        @import url('https://fonts.googleapis.com/css2?family=Nunito:wght@900&amp;display=swap');
        .leafy { font-family: 'Nunito', 'Arial Black', 'Helvetica Neue', sans-serif;
                 font-weight: 900; fill: #2E6B50; }
      </style>
    </defs>
    <rect width="900" height="280" fill="white"/>

    <!-- Testo "Leafy" -->
    <text x="48" y="215" class="leafy" font-size="196">Leafy</text>

    <!-- Foglie a destra -->
    <!-- Foglia sinistra (mint) -->
    <path d="M 808 222
             C 796 212 762 183 760 150
             C 758 122 778 107 800 113
             C 790 152 805 205 808 222 Z"
          fill="#51B888"/>
    <path d="M 807 218 C 795 192 775 168 766 142"
          fill="none" stroke="white" stroke-width="7"
          stroke-linecap="round"/>

    <!-- Foglia destra (forest) -->
    <path d="M 808 222
             C 820 212 856 183 858 150
             C 860 122 840 107 818 113
             C 828 152 812 205 808 222 Z"
          fill="#2E6B50"/>
    <path d="M 809 218 C 821 192 842 168 850 142"
          fill="none" stroke="white" stroke-width="7"
          stroke-linecap="round"/>
  </svg>