<svg xmlns="http://www.w3.org/2000/svg" viewBox="0 0 512 512" width="512" height="512">
  <defs>
    <style>
      @import url('https://fonts.googleapis.com/css2?family=DM+Sans:wght@800&amp;display=swap');
    </style>
    <linearGradient id="bgGrad" x1="0%" y1="0%" x2="100%" y2="100%">
      <stop offset="0%" stop-color="#2D6A4F"/>
      <stop offset="100%" stop-color="#1B4332"/>
    </linearGradient>
  </defs>
  <rect x="0" y="0" width="512" height="512" rx="112" ry="112" fill="url(#bgGrad)"/>
  <text x="148" y="370" font-family="'DM Sans', 'Helvetica Neue', Arial, sans-serif" font-weight="800" font-size="320" fill="white" letter-spacing="-8">L</text>
  <g transform="translate(295, 100)">
    <path d="M48 0C48 0 8 18 2 52C-1 68 2 80 12 86C12 86 6 54 48 0Z" fill="#52B788" opacity="0.9"/>
    <path d="M48 0C48 0 64 28 54 60C48 74 36 80 28 78C28 78 50 66 48 0Z" fill="#40916C"/>
    <line x1="22" y1="76" x2="44" y2="10" stroke="white" stroke-width="1.5" opacity="0.25"/>
  </g>
</svg>
